<svg width="766" height="598" version="1.1" xmlns="http://www.w3.org/2000/svg" desc="Created with imagetracer.js version 1.2.6" ><path fill="rgb(205,7,9)" stroke="rgb(205,7,9)" stroke-width="1" opacity="1" d="M 292 234 Q 298.1 232.3 300 235.5 L 312.5 254 L 326.5 234 L 332 234 L 332 236.5 L 316 259.5 L 316 284 L 309.5 284 L 309 283.5 L 309 260.5 L 292 234 Z " /><path fill="rgb(205,7,9)" stroke="rgb(205,7,9)" stroke-width="1" opacity="1" d="M 434.5 234 Q 439.9 233.4 440 234.5 L 440 278 L 463.5 278 L 464 278.5 L 464 284 L 433 284 L 433 235.5 L 434.5 234 Z " /><path fill="rgb(205,7,9)" stroke="rgb(205,7,9)" stroke-width="1" opacity="1" d="M 519.5 244 Q 530.4 242.7 536 245 L 536 251.5 L 534.5 252 Q 530.2 248.3 520.5 250 L 517 252.5 Q 515.8 258.8 519.5 260 L 532.5 265 L 537 269.5 L 538 275.5 L 533.5 283 L 524.5 286 L 516.5 286 L 510 284 L 510.5 276 Q 514.5 281.5 525.5 280 L 529 277.5 L 530 273.5 L 527.5 270 L 515.5 265 L 511 260.5 L 510 252.5 L 515.5 246 L 519.5 244 Z " /><path fill="rgb(205,7,9)" stroke="rgb(205,7,9)" stroke-width="1" opacity="1" d="M 558.5 244 Q 573.2 241.8 577 250.5 Q 581.1 256.3 580 266 L 552.5 266 Q 551.4 266.1 552 271.5 L 556.5 278 Q 560.2 281.3 568.5 280 L 577 276 Q 578.5 282.3 574.5 284 L 567.5 286 L 559.5 286 Q 550.6 284.4 547 277.5 Q 543 271 545 258.5 Q 547.2 250.2 553.5 246 L 558.5 244 Z M 559 250 L 555 252 L 552 258 L 553 261 L 573 261 L 572 255 Q 569 248 559 250 Z " /><path fill="rgb(205,7,9)" stroke="rgb(205,7,9)" stroke-width="1" opacity="1" d="M 339.5 246 Q 352.8 244.8 357 252.5 Q 361.8 258.7 360 271.5 Q 358.1 279.1 352.5 283 Q 348.1 286.1 339.5 285 Q 332.3 283.2 329 277.5 Q 325 271 327 258.5 Q 328.8 251.3 334.5 248 L 339.5 246 Z M 342 251 L 338 253 L 333 262 Q 332 272 336 277 L 342 280 Q 347 281 350 278 L 354 269 L 354 263 L 351 255 Q 349 250 342 251 Z " /><path fill="rgb(205,7,9)" stroke="rgb(205,7,9)" stroke-width="1" opacity="1" d="M 480.5 246 Q 493.8 244.8 498 252.5 Q 502.8 258.7 501 271.5 Q 499.1 279.1 493.5 283 Q 489.1 286.1 480.5 285 Q 473.3 283.2 470 277.5 Q 466 271 468 258.5 Q 469.8 251.3 475.5 248 L 480.5 246 Z M 483 251 L 479 253 L 474 262 Q 473 272 477 277 L 483 280 Q 488 281 491 278 L 495 269 L 495 263 L 492 255 Q 490 250 483 251 Z " /><path fill="rgb(205,7,9)" stroke="rgb(205,7,9)" stroke-width="1" opacity="1" d="M 369 247 L 374.5 247 L 375 247.5 L 375 273.5 L 378.5 279 L 383.5 280 L 387.5 279 L 392 274.5 L 393 272.5 L 393 247 L 398.5 247 L 399 247.5 L 399 284 L 393 284 L 393 280.5 L 389.5 283 Q 385.8 286.3 377.5 285 L 372 281.5 L 369 275.5 L 369 247 Z " /><path fill="rgb(0,0,0)" stroke="rgb(0,0,0)" stroke-width="1" opacity="0.996078431372549" d="M 0.5 0 L 766 0.5 L 0.5 1 L 0.5 0 Z " /><path fill="rgb(0,0,0)" stroke="rgb(0,0,0)" stroke-width="1" opacity="0.996078431372549" d="M 0.5 597 L 766 597.5 L 0.5 598 L 0.5 597 Z " /><path fill="rgb(0,0,0)" stroke="rgb(0,0,0)" stroke-width="1" opacity="1" d="M 0 1 L 766 1 L 766 597 L 0 597 L 0 1 Z M 292 234 L 309 261 L 309 284 L 310 284 L 316 284 L 316 260 L 332 237 L 332 234 L 327 234 L 313 254 L 300 236 Q 298 232 292 234 Z M 435 234 L 433 236 L 433 284 L 464 284 L 464 279 L 464 278 L 440 278 L 440 235 Q 440 233 435 234 Z M 520 244 L 516 246 L 510 253 L 511 261 L 516 265 L 528 270 L 530 274 L 529 278 L 526 280 Q 515 281 511 276 L 510 284 L 517 286 L 525 286 L 534 283 L 538 276 L 537 270 L 533 265 L 520 260 Q 516 259 517 253 L 521 250 Q 530 248 535 252 L 536 252 L 536 245 Q 530 243 520 244 Z M 559 244 L 554 246 Q 547 250 545 259 Q 543 271 547 278 Q 551 284 560 286 L 568 286 L 575 284 Q 579 282 577 276 L 569 280 Q 560 281 557 278 L 552 272 Q 551 266 553 266 L 580 266 Q 581 256 577 251 Q 573 242 559 244 Z M 340 246 L 335 248 Q 329 251 327 259 Q 325 271 329 278 Q 332 283 340 285 Q 348 286 353 283 Q 358 279 360 272 Q 362 259 357 253 Q 353 245 340 246 Z M 481 246 L 476 248 Q 470 251 468 259 Q 466 271 470 278 Q 473 283 481 285 Q 489 286 494 283 Q 499 279 501 272 Q 503 259 498 253 Q 494 245 481 246 Z M 369 247 L 369 276 L 372 282 L 378 285 Q 386 286 390 283 L 393 281 L 393 284 L 399 284 L 399 248 L 399 247 L 393 247 L 393 273 L 392 275 L 388 279 L 384 280 L 379 279 L 375 274 L 375 248 L 375 247 L 369 247 Z " /><path fill="rgb(0,0,0)" stroke="rgb(0,0,0)" stroke-width="1" opacity="1" d="M 558.5 250 Q 569.3 248.2 572 254.5 L 573 261 L 552.5 261 L 552 257.5 L 555 252 L 558.5 250 Z " /><path fill="rgb(0,0,0)" stroke="rgb(0,0,0)" stroke-width="1" opacity="1" d="M 341.5 251 Q 348.8 250.2 351 254.5 L 354 262.5 L 354 268.5 L 349.5 278 Q 347.2 280.7 341.5 280 L 336 276.5 Q 331.8 271.7 333 261.5 L 337.5 253 L 341.5 251 Z " /><path fill="rgb(0,0,0)" stroke="rgb(0,0,0)" stroke-width="1" opacity="1" d="M 482.5 251 Q 489.8 250.2 492 254.5 L 495 262.5 L 495 268.5 L 490.5 278 Q 488.2 280.7 482.5 280 L 477 276.5 Q 472.8 271.7 474 261.5 L 478.5 253 L 482.5 251 Z " /></svg>